<?xml version="1.0" standalone="no"?>
<!DOCTYPE svg PUBLIC "-//W3C//DTD SVG 20010904//EN"
 "http://www.w3.org/TR/2001/REC-SVG-20010904/DTD/svg10.dtd">
<svg version="1.0" xmlns="http://www.w3.org/2000/svg"
 width="1271.000000pt" height="1280.000000pt" viewBox="0 0 1271.000000 1280.000000"
 preserveAspectRatio="xMidYMid meet">
<metadata>
Created by potrace 1.15, written by Peter Selinger 2001-2017
</metadata>
<g transform="translate(0.000000,1280.000000) scale(0.100000,-0.100000)"
fill="#000000" stroke="none">
<path d="M1790 12790 c-129 -12 -315 -55 -426 -100 -225 -92 -385 -201 -647
-439 -378 -346 -569 -631 -683 -1020 -25 -84 -25 -95 -27 -411 -1 -283 1 -346
20 -485 32 -240 126 -574 235 -840 62 -150 238 -476 342 -632 97 -147 296
-411 406 -539 41 -48 105 -124 141 -168 36 -45 108 -117 160 -161 52 -44 130
-114 174 -156 185 -175 524 -397 847 -554 178 -87 502 -164 823 -196 179 -18
465 -6 636 25 148 28 337 80 439 122 113 46 412 201 497 258 81 54 134 78 203
89 32 6 43 0 121 -58 48 -35 152 -126 232 -202 269 -253 3392 -3405 3405
-3436 8 -17 118 -173 246 -347 127 -173 267 -367 309 -430 238 -354 195 -307
1216 -1340 520 -525 1056 -1067 1191 -1205 l247 -250 33 -88 c41 -110 115
-212 160 -222 26 -6 39 0 86 36 302 233 550 487 529 542 -13 31 -182 156 -265
194 l-85 40 -1150 1158 c-842 848 -1174 1176 -1240 1225 -49 36 -198 145 -330
241 -132 96 -361 265 -510 375 -148 110 -284 206 -300 214 -17 8 -631 620
-1366 1360 -1901 1915 -2231 2257 -2291 2374 -14 27 -13 35 18 117 18 48 64
139 102 201 228 373 318 606 379 973 39 238 17 698 -47 961 -21 87 -139 393
-194 502 -57 112 -234 413 -286 484 -138 189 -420 511 -578 660 -92 86 -373
313 -502 405 -218 156 -613 373 -901 496 -220 94 -475 161 -809 212 -163 25
-376 31 -560 15z"/>
</g>
</svg>
